<?xml version="1.0" encoding="utf-8" ?><svg xmlns="http://www.w3.org/2000/svg" xmlns:xlink="http://www.w3.org/1999/xlink" width="32" height="32" viewBox="0 0 32 32"><path fill="#090909" d="M12.5697 0L19.2339 0C20.4512 0.627852 21.573 0.97903 22.7776 1.56628C28.3757 4.29529 30.0344 7.49103 32 13.0322L32 18.9407C29.7038 25.0764 28.4109 27.831 21.9974 30.8183C21.5616 31.0213 19.4341 31.8604 19.2423 32L12.7751 32C12.377 31.7368 10.5232 31.0079 10.0247 30.8162C3.33926 28.2447 2.93004 24.8038 0 19.1956L0 12.7682C0.335529 12.3276 1.47848 9.12745 1.9084 8.33428C4.97306 2.68023 8.01752 2.46529 12.5697 0Z"/><path fill="#D4A932" d="M19.7467 6.39886C21.4299 6.47597 22.6054 6.47084 24.2884 6.38606C20.5087 12.33 15.7887 18.6964 11.7289 24.5388C16.6059 24.3401 20.8119 25.7301 23.2393 20.8747C23.5132 20.3269 24.0635 19.4492 24.4276 18.9649C24.0737 21.1873 23.6659 23.5151 23.4348 25.7443C19.515 25.5893 11.4256 25.506 7.44905 25.7102C10.1765 21.4535 13.1611 17.4445 16.0473 13.3067C16.6599 12.4285 19.4732 8.52035 19.7969 7.7561L19.7467 6.39886Z"/><defs><linearGradient id="gradient_0" gradientUnits="userSpaceOnUse" x1="18.318769" y1="8.9195509" x2="9.1600456" y2="8.0548449"><stop offset="0" stop-color="#A3852F"/><stop offset="1" stop-color="#DEAB2F"/></linearGradient></defs><path fill="url(#gradient_0)" d="M9.09861 6.43194C12.6006 6.53583 16.2992 6.19167 19.7467 6.39886L19.7969 7.7561C13.1268 7.85872 11.9848 5.9743 8.60885 12.5101C8.54474 11.0469 8.93273 7.93469 9.09861 6.43194Z"/></svg>