<?xml version="1.0" encoding="utf-8"?>
<!DOCTYPE svg PUBLIC "-//W3C//DTD SVG 1.0//EN" "http://www.w3.org/TR/2001/REC-SVG-20010904/DTD/svg10.dtd">
<svg version="1.0" xmlns="http://www.w3.org/2000/svg" width="32px" height="32px" viewBox="0 0 32 32" preserveAspectRatio="xMidYMid meet">
 <g fill="#fefefe">
  <path d="M0 24.56 c0 -7.39 0 -7.44 0.06 -7.44 0.07 0 0.07 0 0.14 0.59 0.18 1.56 0.68 3.30 1.38 4.78 1.13 2.40 2.87 4.54 4.99 6.13 1.75 1.32 3.70 2.26 5.76 2.79 0.78 0.20 2.13 0.42 2.57 0.42 0.09 0 0.16 0.02 0.16 0.03 0 0.02 0.08 0.03 0.17 0.03 0.13 0 0.17 0.01 0.17 0.05 0 0.04 -0.88 0.05 -7.70 0.05 l-7.70 0 0 -7.44z"/>
  <path d="M16.84 31.95 c0 -0.03 0.03 -0.05 0.06 -0.05 0.03 0 0.06 -0.01 0.06 -0.03 0 -0.01 0.13 -0.03 0.29 -0.05 4.12 -0.31 8.31 -2.58 11.05 -5.98 1.99 -2.47 3.21 -5.37 3.51 -8.33 0.03 -0.35 0.07 -0.45 0.15 -0.45 0.03 0 0.03 2.18 0.03 7.47 l0 7.47 -7.58 0 c-6.72 0 -7.58 -0.01 -7.58 -0.05z"/>
  <path d="M31.91 15.02 c0 -0.09 -0.01 -0.17 -0.03 -0.17 -0.02 0 -0.03 -0.06 -0.03 -0.13 0 -0.21 -0.15 -1.26 -0.25 -1.73 -0.43 -2.04 -1.30 -4.07 -2.48 -5.78 -1.04 -1.51 -2.30 -2.83 -3.69 -3.87 -1.77 -1.33 -3.71 -2.25 -5.83 -2.78 -0.71 -0.18 -2 -0.39 -2.37 -0.39 -0.17 0 -0.26 -0.03 -0.26 -0.10 0 -0.06 0.17 -0.06 7.52 -0.06 l7.52 0 0 7.59 c0 6.73 -0.01 7.59 -0.05 7.59 -0.04 0 -0.05 -0.04 -0.05 -0.17z"/>
  <path d="M0 7.55 l0 -7.55 7.75 0 c7.51 0 7.75 0 7.75 0.06 0 0.05 -0.04 0.06 -0.40 0.08 -1.82 0.09 -3.78 0.60 -5.63 1.46 -3.49 1.62 -6.42 4.60 -8 8.13 -0.72 1.60 -1.16 3.26 -1.33 4.98 -0.03 0.35 -0.04 0.40 -0.09 0.40 -0.05 0 -0.06 -0.30 -0.06 -7.55z"/>
 </g>
 <g fill="#f1c225">
  <path d="M7.47 25.94 c0 -0.19 0.14 -0.91 0.20 -1.02 0.03 -0.05 0.30 -0.46 0.62 -0.90 0.32 -0.45 0.70 -0.99 0.85 -1.22 0.16 -0.22 0.61 -0.88 1.01 -1.45 0.40 -0.57 1.27 -1.82 1.94 -2.77 1.52 -2.17 1.68 -2.40 2.70 -3.85 0.46 -0.65 0.99 -1.42 1.19 -1.70 0.20 -0.28 0.79 -1.13 1.32 -1.89 1.68 -2.40 2.19 -3.13 2.22 -3.17 0.02 -0.03 -0.61 -0.04 -3.38 -0.03 -3.12 0.01 -3.42 0.02 -3.63 0.07 -0.13 0.03 -0.28 0.08 -0.32 0.10 -0.05 0.03 -0.11 0.04 -0.14 0.04 -0.03 0 -0.10 0.03 -0.16 0.07 -0.06 0.04 -0.18 0.10 -0.26 0.15 -0.21 0.11 -0.72 0.62 -0.92 0.93 -0.38 0.58 -0.69 1.35 -0.82 2.03 l-0.07 0.36 -0.79 0 -0.79 0 0 -0.08 c0 -0.05 0.08 -0.60 0.18 -1.23 0.10 -0.63 0.25 -1.55 0.33 -2.05 0.08 -0.50 0.20 -1.23 0.26 -1.62 l0.11 -0.71 7.70 0 7.70 0 0 0.09 c0 0.14 -0.12 0.78 -0.17 0.89 -0.02 0.05 -0.22 0.35 -0.43 0.66 -0.43 0.62 -1.76 2.53 -2.43 3.48 -0.23 0.33 -0.64 0.91 -0.90 1.28 -0.39 0.56 -3.40 4.87 -3.81 5.44 -0.07 0.09 -0.59 0.84 -1.17 1.67 -1.60 2.28 -2.51 3.58 -2.83 4.04 -0.16 0.22 -0.29 0.42 -0.29 0.43 0 0.01 1.57 0.02 3.48 0.02 3.72 0 3.78 -0 4.29 -0.16 0.27 -0.08 0.66 -0.28 0.87 -0.45 0.84 -0.65 1.57 -1.85 1.85 -3.02 0.13 -0.57 0.01 -0.50 0.91 -0.50 l0.77 0 0 0.10 c0 0.06 -0.14 0.93 -0.32 1.95 -0.17 1.01 -0.40 2.37 -0.51 3 l-0.19 1.16 -8.07 0.01 -8.07 0.01 0 -0.15z"/>
 </g>
 <g fill="#000000">
  <path d="M15.05 31.97 c-2.30 -0.20 -4.03 -0.67 -5.93 -1.61 -3.08 -1.52 -5.60 -3.94 -7.23 -6.96 -0.92 -1.69 -1.57 -3.74 -1.77 -5.58 -0.03 -0.25 -0.06 -0.50 -0.08 -0.55 -0.02 -0.05 -0.03 -0.56 -0.03 -1.13 0 -1.08 0.04 -1.62 0.19 -2.56 0.72 -4.50 3.46 -8.60 7.44 -11.13 1.96 -1.24 4.31 -2.08 6.56 -2.34 1 -0.12 2.47 -0.14 3.21 -0.05 0.95 0.11 1.70 0.24 2.41 0.43 3.84 0.99 7.11 3.29 9.41 6.63 1.18 1.71 2.05 3.75 2.48 5.78 0.22 1.08 0.32 2.17 0.31 3.39 -0.02 1.20 -0.16 2.26 -0.47 3.47 -0.97 3.84 -3.38 7.24 -6.73 9.50 -2.63 1.78 -5.57 2.71 -8.63 2.74 -0.45 0.01 -0.95 -0 -1.13 -0.02z m8.55 -6.51 c0.12 -0.70 0.90 -5.29 0.92 -5.40 l0.02 -0.09 -0.68 0 c-0.79 0 -0.68 -0.07 -0.82 0.50 -0.28 1.17 -1.01 2.37 -1.85 3.02 -0.21 0.16 -0.60 0.36 -0.87 0.45 -0.51 0.15 -0.56 0.16 -4.44 0.16 -2 0 -3.63 -0.01 -3.63 -0.02 0 -0.02 0.08 -0.14 1.34 -1.93 0.47 -0.67 1.33 -1.89 1.91 -2.72 0.58 -0.82 1.10 -1.58 1.17 -1.67 0.41 -0.57 3.42 -4.88 3.81 -5.44 0.26 -0.37 0.66 -0.95 0.90 -1.28 2 -2.85 2.82 -4.03 2.86 -4.14 0.02 -0.05 0.06 -0.22 0.09 -0.38 0.03 -0.15 0.06 -0.31 0.07 -0.35 l0.01 -0.07 -7.60 0 -7.61 0 -0.11 0.71 c-0.06 0.39 -0.18 1.12 -0.26 1.62 -0.24 1.54 -0.48 3.03 -0.50 3.10 l-0.02 0.07 0.69 0 0.70 0 0.07 -0.36 c0.13 -0.68 0.45 -1.46 0.82 -2.03 0.20 -0.31 0.71 -0.82 0.92 -0.93 0.08 -0.04 0.20 -0.11 0.26 -0.15 0.06 -0.04 0.13 -0.07 0.16 -0.07 0.03 0 0.09 -0.02 0.14 -0.04 0.05 -0.03 0.20 -0.07 0.32 -0.10 0.22 -0.05 0.52 -0.06 3.79 -0.07 l3.56 -0.01 -0.06 0.09 c-0.06 0.09 -1.42 2.04 -2.65 3.79 -0.34 0.49 -0.78 1.12 -0.98 1.41 -0.20 0.28 -0.73 1.05 -1.19 1.70 -1.02 1.45 -1.17 1.67 -2.70 3.85 -0.66 0.95 -1.53 2.19 -1.94 2.77 -0.40 0.57 -0.86 1.23 -1.01 1.45 -0.16 0.22 -0.54 0.77 -0.85 1.22 -0.31 0.45 -0.59 0.85 -0.62 0.90 -0.04 0.08 -0.20 0.81 -0.20 0.93 0 0.05 0.32 0.06 7.97 0.05 l7.97 -0.01 0.09 -0.53z"/>
 </g>
</svg>